<?xml version="1.0" encoding="UTF-8"?>
<svg version="1.1" xmlns="http://www.w3.org/2000/svg" width="1080" height="1080">
<path d="M0 0 C0.67256605 -0.00177501 1.34513211 -0.00355002 2.03807895 -0.00537882 C4.30045463 -0.01012428 6.5627667 -0.00774448 8.82514536 -0.00541991 C10.46705578 -0.00737279 12.10896572 -0.00976162 13.75087494 -0.01254788 C18.28649569 -0.018959 22.82209876 -0.01910862 27.35772319 -0.01827047 C32.28332525 -0.01843975 37.20892093 -0.02434343 42.13451982 -0.02951133 C51.91462582 -0.03884729 61.6947273 -0.04276106 71.4748372 -0.0450303 C83.18520534 -0.04798979 94.89556745 -0.05668571 106.60593244 -0.06544458 C134.91327261 -0.08630051 163.22061442 -0.09676406 191.5279604 -0.10557419 C200.90268575 -0.10850816 210.27741087 -0.11187806 219.65213597 -0.1155414 C220.64418317 -0.11592884 220.64418317 -0.11592884 221.65627172 -0.1163241 C224.33194063 -0.11737033 227.00760953 -0.11841875 229.68327843 -0.11946992 C275.45367097 -0.1374354 321.22406387 -0.15281401 366.99445942 -0.16022895 C370.58981881 -0.16081292 374.1851782 -0.16141019 377.78053758 -0.16200657 C378.49374123 -0.16212469 379.20694488 -0.16224281 379.94176076 -0.16236451 C387.16748943 -0.16356189 394.39321809 -0.16477065 401.61894674 -0.16599704 C403.06772409 -0.16624227 404.51650144 -0.16648613 405.96527879 -0.16672861 C452.48714301 -0.17451706 499.008982 -0.19689719 545.5308352 -0.22940504 C578.95688584 -0.25275412 612.38293146 -0.27430411 645.80899012 -0.28141135 C646.84037445 -0.28163188 646.84037445 -0.28163188 647.89259482 -0.28185687 C662.9878675 -0.28504188 678.08314014 -0.28709264 693.17841313 -0.28808442 C699.25238835 -0.28849915 705.32636356 -0.28905404 711.40033877 -0.28964633 C712.06509144 -0.289707 712.7298441 -0.28976766 713.41474079 -0.28983017 C735.48057007 -0.29190762 757.546367 -0.30737716 779.61218553 -0.32848817 C801.11422624 -0.34873356 822.61623139 -0.35422956 844.11827986 -0.34471754 C856.89490365 -0.33949757 869.67140914 -0.34540358 882.44801593 -0.36725221 C890.98351971 -0.3807461 899.51894193 -0.37969573 908.0544465 -0.36685025 C912.91721316 -0.35994432 917.7797534 -0.35931596 922.64249997 -0.37641034 C927.07243978 -0.39185617 931.50197196 -0.38864884 935.93189997 -0.37100006 C937.51864267 -0.36786823 939.10541689 -0.37133759 940.69212348 -0.38249181 C962.09979795 -0.52309602 979.67682062 6.20393134 995.34117663 21.14442617 C1006.69072173 33.04492006 1014.34648294 49.36667035 1014.35669655 65.90090579 C1014.35847156 66.57347184 1014.36024657 67.24603789 1014.36207536 67.93898474 C1014.36682083 70.20136041 1014.36444102 72.46367249 1014.36211646 74.72605115 C1014.36406934 76.36796157 1014.36645816 78.00987151 1014.36924443 79.65178072 C1014.37565555 84.18740148 1014.37580516 88.72300455 1014.37496702 93.25862898 C1014.3751363 98.18423104 1014.38103998 103.10982672 1014.38620788 108.0354256 C1014.39554384 117.81553161 1014.3994576 127.59563308 1014.40172684 137.37574299 C1014.40468633 149.08611113 1014.41338226 160.79647324 1014.42214112 172.50683822 C1014.44299706 200.81417839 1014.4534606 229.12152021 1014.46227073 257.42886619 C1014.46520471 266.80359154 1014.4685746 276.17831666 1014.47223794 285.55304176 C1014.47249624 286.21440656 1014.47275453 286.87577135 1014.47302064 287.55717751 C1014.47406687 290.23284642 1014.4751153 292.90851532 1014.47616647 295.58418422 C1014.49413194 341.35457675 1014.50951056 387.12496965 1014.5169255 432.89536521 C1014.51750947 436.4907246 1014.51810673 440.08608398 1014.51870311 443.68144337 C1014.51882123 444.39464702 1014.51893935 445.10785067 1014.51906105 445.84266655 C1014.52025844 453.06839521 1014.5214672 460.29412387 1014.52269359 467.51985253 C1014.52293882 468.96862988 1014.52318268 470.41740723 1014.52342515 471.86618457 C1014.53121361 518.3880488 1014.55359374 564.90988779 1014.58610158 611.43174098 C1014.60945067 644.85779163 1014.63100066 678.28383725 1014.6381079 711.70989591 C1014.63825492 712.39748546 1014.63840194 713.08507501 1014.63855341 713.79350061 C1014.64173843 728.88877329 1014.64378919 743.98404593 1014.64478096 759.07931892 C1014.64519569 765.15329414 1014.64575059 771.22726935 1014.64634287 777.30124456 C1014.64643388 778.29837356 1014.64643388 778.29837356 1014.64652672 779.31564658 C1014.64860417 801.38147586 1014.66407371 823.44727279 1014.68518472 845.51309132 C1014.70543011 867.01513203 1014.71092611 888.51713717 1014.70141409 910.01918565 C1014.69619411 922.79580944 1014.70210012 935.57231493 1014.72394876 948.34892172 C1014.73744265 956.8844255 1014.73639228 965.41984772 1014.7235468 973.95535229 C1014.71664087 978.81811895 1014.71601251 983.68065919 1014.73310689 988.54340576 C1014.74855271 992.97334557 1014.74534539 997.40287775 1014.72769661 1001.83280576 C1014.72456478 1003.41954846 1014.72803413 1005.00632268 1014.73918835 1006.59302927 C1014.87979256 1028.00070374 1008.15276521 1045.57772641 993.21227038 1061.24208242 C979.09013441 1074.7104158 962.74404083 1079.75398899 943.60475695 1079.63216573 C941.93672135 1079.6363445 940.26868939 1079.64227411 938.60066545 1079.64978319 C934.02506483 1079.66532185 929.449803 1079.65605969 924.87420806 1079.64267138 C919.89324614 1079.63250975 914.9123355 1079.64557011 909.93138087 1079.65564471 C901.20423185 1079.67008595 892.47718182 1079.66965661 883.75002825 1079.65945607 C870.77247767 1079.64432876 857.79501062 1079.65205974 844.8174606 1079.6642893 C822.98345722 1079.68413647 801.14948865 1079.68486884 779.31548083 1079.67398244 C778.65093535 1079.67365126 777.98638988 1079.67332008 777.30170666 1079.67297886 C776.30328847 1079.67248128 776.30328847 1079.67248128 775.28470021 1079.67197365 C755.00170215 1079.66187863 734.71872014 1079.65927642 714.43572009 1079.66406423 C713.07717191 1079.66437415 711.71862373 1079.66468277 710.36007555 1079.66499011 C704.90055342 1079.66623199 699.4410313 1079.66750666 693.98150919 1079.66882916 C678.72014238 1079.67249709 663.45877552 1079.67477957 648.19740832 1079.67597371 C647.50245753 1079.6760283 646.80750674 1079.67608288 646.09149684 1079.67613912 C623.94928764 1079.67777608 601.80708403 1079.67326941 579.66487658 1079.6645754 C578.58772549 1079.6641539 578.58772549 1079.6641539 577.48881377 1079.66372389 C565.82752263 1079.65914417 554.16623162 1079.65426629 542.50494062 1079.6493632 C496.25567566 1079.62993804 450.00645701 1079.63083965 403.75719225 1079.65028554 C392.10176628 1079.65517035 380.44634029 1079.66001458 368.79091418 1079.6645754 C368.07323489 1079.66485719 367.3555556 1079.66513898 366.61612845 1079.66542932 C344.49687904 1079.67405479 322.37763348 1079.67771101 300.25838244 1079.67597371 C299.56394278 1079.67591938 298.86950313 1079.67586504 298.15401985 1079.67580906 C282.90957227 1079.67455911 267.6651251 1079.67202449 252.42067793 1079.6683317 C246.96605373 1079.66701515 241.51142952 1079.66576283 236.05680531 1079.66452886 C234.69985256 1079.6642193 233.34289982 1079.66390438 231.98594707 1079.66358407 C211.70865263 1079.6588108 191.43137628 1079.66287335 171.15408409 1079.67297886 C170.48953862 1079.67331004 169.82499315 1079.67364122 169.14030993 1079.67398244 C168.47699183 1079.67431317 167.81367374 1079.6746439 167.1302551 1079.67498465 C144.75305835 1079.68601987 122.37590672 1079.6819469 99.99871647 1079.66085947 C87.0970134 1079.64910273 74.19542078 1079.6483643 61.29372055 1079.66344416 C52.67890781 1079.67240368 44.06418374 1079.66684961 35.44938415 1079.64942509 C30.53899328 1079.63989805 25.62882208 1079.63668111 20.71843803 1079.65104902 C16.24886919 1079.66399384 11.77971438 1079.65844728 7.31017557 1079.63832638 C5.7057461 1079.63430696 4.10128215 1079.63693797 2.49688014 1079.64715013 C-17.26341321 1079.76397323 -32.62502261 1072.69425494 -46.89319837 1059.10926992 C-58.23175354 1047.19605113 -65.89068898 1030.89612566 -65.90090579 1014.35669655 C-65.9026808 1013.68413049 -65.90445581 1013.01156444 -65.9062846 1012.3186176 C-65.91103007 1010.05624192 -65.90865027 1007.79392985 -65.9063257 1005.53155118 C-65.90827858 1003.88964077 -65.91066741 1002.24773082 -65.91345367 1000.60582161 C-65.91986479 996.07020085 -65.9200144 991.53459778 -65.91917626 986.99897336 C-65.91934554 982.0733713 -65.92524922 977.14777562 -65.93041712 972.22217673 C-65.93975308 962.44207073 -65.94366684 952.66196925 -65.94593609 942.88185934 C-65.94889557 931.17149121 -65.9575915 919.46112909 -65.96635037 907.75076411 C-65.9872063 879.44342394 -65.99766985 851.13608213 -66.00647997 822.82873615 C-66.00941395 813.4540108 -66.01278385 804.07928567 -66.01644719 794.70456058 C-66.01670548 794.04319578 -66.01696377 793.38183098 -66.01722989 792.70042482 C-66.01827612 790.02475592 -66.01932454 787.34908701 -66.02037571 784.67341811 C-66.03834118 738.90302558 -66.0537198 693.13263268 -66.06113474 647.36223712 C-66.06171871 643.76687773 -66.06231598 640.17151835 -66.06291236 636.57615896 C-66.06303048 635.86295531 -66.0631486 635.14975166 -66.0632703 634.41493578 C-66.06446768 627.18920712 -66.06567644 619.96347846 -66.06690283 612.7377498 C-66.06714806 611.28897246 -66.06739192 609.84019511 -66.0676344 608.39141776 C-66.07542285 561.86955353 -66.09780298 515.34771455 -66.13031082 468.82586135 C-66.15365991 435.39981071 -66.1752099 401.97376508 -66.18231714 368.54770643 C-66.18246416 367.86011688 -66.18261118 367.17252733 -66.18276266 366.46410173 C-66.18594767 351.36882904 -66.18799843 336.2735564 -66.1889902 321.17828342 C-66.18940494 315.10430819 -66.18995983 309.03033299 -66.19055212 302.95635778 C-66.19061278 302.29160511 -66.19067345 301.62685244 -66.19073596 300.94195576 C-66.19281341 278.87612647 -66.20828295 256.81032954 -66.22939396 234.74451101 C-66.24963935 213.24247031 -66.25513535 191.74046516 -66.24562333 170.23841669 C-66.24040336 157.46179289 -66.24630937 144.68528741 -66.268158 131.90868062 C-66.28165189 123.37317683 -66.28060152 114.83775461 -66.26775604 106.30225004 C-66.26085011 101.43948338 -66.26022175 96.57694315 -66.27731613 91.71419658 C-66.29276196 87.28425677 -66.28955463 82.85472458 -66.27190585 78.42479657 C-66.26877402 76.83805387 -66.27224337 75.25127965 -66.2833976 73.66457307 C-66.42400181 52.25689859 -59.69697445 34.67987593 -44.75647962 19.01551992 C-32.85598572 7.66597481 -16.53423543 0.0102136 0 0 Z " fill="#FEFEFE" transform="translate(65.77210462093353,0.871198832988739)"/>
<path d="M0 0 C-0.14695312 1.13566406 -0.29390625 2.27132812 -0.4453125 3.44140625 C-0.81627555 6.40455498 -1.14505053 9.36719146 -1.4296875 12.33984375 C-1.50316406 13.09458984 -1.57664062 13.84933594 -1.65234375 14.62695312 C-1.79735332 16.13174538 -1.93819187 17.63694729 -2.07421875 19.14257812 C-2.67410483 25.18719299 -3.69398086 31.13623713 -4.7747345 37.10964966 C-5.76496565 42.60075173 -6.67154777 48.10091544 -7.53515625 53.61328125 C-7.66112183 54.4112059 -7.7870874 55.20913055 -7.91687012 56.03123474 C-8.43199771 59.29488247 -8.94605475 62.55864707 -9.45043945 65.82397461 C-9.8268286 68.25473226 -10.21152651 70.68405456 -10.59765625 73.11328125 C-10.70916519 73.84863602 -10.82067413 74.58399078 -10.93556213 75.34162903 C-11.5091216 78.90703056 -12.2161654 81.85525872 -14 85 C-14.4123819 87.28883049 -14.4123819 87.28883049 -14.5625 89.625 C-14.90277778 93.80555556 -14.90277778 93.80555556 -16 96 C-16.07637567 98.12366801 -16.14728525 100.24768708 -16.18920898 102.37231445 C-16.4268407 112.88823345 -17.92552567 122.75822484 -20.12744141 133.03149414 C-21.64061395 140.09753808 -22.73917722 147.03487469 -23.5390625 154.21875 C-24.0618211 158.50714258 -24.74996809 162.74641978 -25.5 167 C-25.61875488 167.68255859 -25.73750977 168.36511719 -25.85986328 169.06835938 C-26.47219904 172.47078009 -27.18974095 175.80776507 -28.06640625 179.15234375 C-28.8550315 182.40253567 -29.2780049 185.24210198 -29.4375 188.5625 C-29.76021928 193.10887861 -30.42644651 197.41729007 -31.375 201.875 C-33.07817794 209.96922914 -34.16029595 218.10326083 -35.23828125 226.30078125 C-35.98964296 232.00229069 -36.82624324 237.6891674 -37.6875 243.375 C-37.81898438 244.24342529 -37.95046875 245.11185059 -38.0859375 246.0065918 C-38.38939858 248.00458119 -38.69449821 250.00232162 -39 252 C-39.66 252 -40.32 252 -41 252 C-41.33 256.29 -41.66 260.58 -42 265 C-42.66 265 -43.32 265 -44 265 C-43.938125 266.8871875 -43.938125 266.8871875 -43.875 268.8125 C-43.86053938 273.4109786 -44.58007255 277.64658099 -45.5625 282.12890625 C-46.20085605 285.83407853 -46.20085605 285.83407853 -46 293 C53.495 293.495 53.495 293.495 155 294 C153.8887114 299.55644302 153.8887114 299.55644302 150.9375 301.6875 C146.91248156 304.87776103 143.99064928 308.62037196 140.859375 312.66796875 C139.35739445 314.55175528 137.86620572 316.22085457 136.125 317.875 C133.96047153 319.8155338 133.96047153 319.8155338 133 322 C131.55052692 324.89894616 129.31275022 326.73981228 127 329 C125.42010539 330.86326637 123.86746202 332.74448632 122.33203125 334.64453125 C121.89246094 335.09183594 121.45289063 335.53914063 121 336 C120.34 336 119.68 336 119 336 C118.76410156 336.55558594 118.52820313 337.11117188 118.28515625 337.68359375 C116.6872248 340.56375591 114.694995 342.66369076 112.4375 345.0625 C108.11722784 349.73188506 104.03955837 354.52891692 100.046875 359.484375 C98.24274423 361.70166549 96.39092217 363.85695488 94.5 366 C91.86841135 368.78743371 91.86841135 368.78743371 91 372 C89.57421875 373.33203125 89.57421875 373.33203125 87.6875 374.8125 C81.36922618 380.17175011 76.28983491 386.65763054 71 393 C69.14905785 395.21105743 67.29481459 397.41929307 65.4375 399.625 C64.76521362 400.42454102 64.76521362 400.42454102 64.0793457 401.24023438 C60.49507771 405.47659791 56.76123724 409.557397 52.98413086 413.62158203 C49.24191966 417.67324917 45.77812514 421.90694115 42.328125 426.20703125 C39.74151826 429.31009135 37.01567067 432.24518893 34.25 435.1875 C30.70015071 438.96746 27.79587116 442.71792966 25.22265625 447.21875 C23.3129321 450.00096793 20.75466593 451.89589022 18.16796875 454.03125 C14.81294322 457.07797589 12.12368121 460.60517786 9.3125 464.1484375 C6.31149615 467.84899968 3.09896698 471.32791366 -0.15234375 474.80859375 C-1.85661725 476.82994138 -2.8450349 478.65024341 -4 481 C-5.38563861 482.1152701 -6.77275655 483.22876126 -8.16796875 484.33203125 C-11.39208299 487.26741885 -13.97389065 490.74725821 -16.6875 494.1484375 C-19.42749129 497.52714298 -22.32214878 500.73549436 -25.2734375 503.9296875 C-27.09808401 506.00937717 -27.09808401 506.00937717 -28.5859375 508.64453125 C-30.31312711 511.52159018 -32.37252677 512.90996447 -35 515 C-37.44157252 517.57248793 -39.70652182 520.29562444 -42 523 C-42.90941387 524.05923158 -43.81962712 525.11777717 -44.73046875 526.17578125 C-48.79627848 530.90217641 -52.85681079 535.63265281 -56.8671875 540.40625 C-62.05724571 546.58306678 -67.32785678 552.63933122 -72.80859375 558.5625 C-75.66083081 561.73504176 -78.34645924 564.83499255 -80.4375 568.5625 C-82.27216617 571.42457923 -84.33885708 572.88318177 -87 575 C-89.42887586 577.58716215 -91.72008552 580.28143215 -94 583 C-94.78375 583.928125 -95.5675 584.85625 -96.375 585.8125 C-98.17066872 587.99221829 -98.17066872 587.99221829 -99 591 C-100.63671875 592.54296875 -100.63671875 592.54296875 -102.6875 594.1875 C-106.36674296 597.27885674 -109.07986905 600.53098041 -111.7734375 604.49609375 C-112.17820312 604.99238281 -112.58296875 605.48867188 -113 606 C-113.66 606 -114.32 606 -115 606 C-115.23589844 606.55558594 -115.47179687 607.11117187 -115.71484375 607.68359375 C-117.3127752 610.56375591 -119.305005 612.66369076 -121.5625 615.0625 C-124.9953483 618.75363459 -128.27938092 622.50410259 -131.4375 626.4375 C-135.09635769 630.9739673 -138.94868963 635.258661 -142.91601562 639.52148438 C-145.8870119 642.73281228 -148.69953832 646.02618789 -151.4375 649.4375 C-154.82140964 653.64616181 -158.37349269 657.62441423 -162.0625 661.5625 C-171.15500685 670.9784822 -171.15500685 670.9784822 -178 682 C-178.66 682 -179.32 682 -180 682 C-180.33 682.99 -180.66 683.98 -181 685 C-184.08703669 688.34428975 -187.39972332 691.2226437 -191 694 C-190.85288574 692.98284912 -190.70577148 691.96569824 -190.55419922 690.91772461 C-190.05468637 687.38658689 -189.58590602 683.85374659 -189.1328125 680.31640625 C-185.98848556 656.04877253 -185.98848556 656.04877253 -183.65625 644.32421875 C-181.99832955 635.92606219 -180.9171457 627.56194261 -180.27734375 619.03125 C-179.78476942 613.6476207 -178.88527856 608.33077811 -178 603 C-177.81050781 601.84886719 -177.62101563 600.69773437 -177.42578125 599.51171875 C-176.95554103 596.67360223 -176.48040122 593.83641144 -176 591 C-175.34 591 -174.68 591 -174 591 C-174.02320313 590.21238281 -174.04640625 589.42476562 -174.0703125 588.61328125 C-174.08835937 587.52402344 -174.10640625 586.43476562 -174.125 585.3125 C-174.14820313 584.25675781 -174.17140625 583.20101562 -174.1953125 582.11328125 C-174.07867671 576.34921583 -172.93559618 570.67500102 -172 565 C-171.67645448 562.95082478 -171.35479214 560.9013512 -171.03515625 558.8515625 C-170.79720337 557.33054932 -170.79720337 557.33054932 -170.55444336 555.77880859 C-170.39210205 554.73805176 -170.22976074 553.69729492 -170.0625 552.625 C-169.88920166 551.51592285 -169.71590332 550.4068457 -169.53735352 549.26416016 C-168.67652433 543.67849398 -167.86685414 538.09424655 -167.1796875 532.484375 C-167.05327881 531.45489746 -166.92687012 530.42541992 -166.79663086 529.36474609 C-166.56437744 527.4312482 -166.34064762 525.49669905 -166.12719727 523.56103516 C-165.45146563 517.9138863 -164.10976263 513.2771899 -162 508 C-160.52577561 501.821509 -159.93021841 495.58052485 -159.5625 489.25 C-159.06215607 481.35664325 -157.5699603 473.732344 -156 466 C-152.87314544 450.5649277 -152.87314544 450.5649277 -151.27734375 434.9140625 C-150.89062523 430.85079467 -149.86357149 427.05409665 -148.71875 423.14453125 C-147.73412991 418.83681836 -147.43968786 414.39687862 -147 410 C-213.66 410 -280.32 410 -349 410 C-347.94076886 405.76307543 -346.81732011 404.22488638 -344.0625 400.9375 C-343.24910156 399.96683594 -342.43570312 398.99617188 -341.59765625 397.99609375 C-338.28771897 394.17846684 -334.88043601 390.45764348 -331.4609375 386.73828125 C-328.32061726 383.2440519 -325.37389707 379.61432651 -322.421875 375.9609375 C-316.58414749 368.82384483 -310.5275515 361.86000458 -304.4375 354.9375 C-297.13230957 346.61918097 -290.06048276 338.10543203 -283.078125 329.515625 C-280.55900757 326.46616705 -277.95526055 323.50111186 -275.3125 320.55859375 C-273.91181956 319.01868399 -273.91181956 319.01868399 -273 317 C-272.34 317 -271.68 317 -271 317 C-270.72454346 316.40687012 -270.44908691 315.81374023 -270.1652832 315.20263672 C-269.05705101 313.10783873 -267.90806772 311.53616996 -266.35546875 309.7578125 C-265.84306641 309.16613281 -265.33066406 308.57445312 -264.80273438 307.96484375 C-264.26970703 307.35769531 -263.73667969 306.75054687 -263.1875 306.125 C-262.13893712 304.91960633 -261.09075636 303.71388014 -260.04296875 302.5078125 C-259.53161377 301.92233643 -259.02025879 301.33686035 -258.4934082 300.73364258 C-257.06862788 299.07966757 -255.68402922 297.39893061 -254.3046875 295.70703125 C-252 293 -252 293 -248.9375 290.5625 C-245.48129833 287.54751556 -244.15550543 285.02361014 -242 281 C-239.875 278.0625 -239.875 278.0625 -238 276 C-237.34 276 -236.68 276 -236 276 C-236 275.34 -236 274.68 -236 274 C-235.34 274 -234.68 274 -234 274 C-233.76410156 273.28070313 -233.52820313 272.56140625 -233.28515625 271.8203125 C-231.78351014 268.52490674 -229.93446903 266.49310525 -227.4375 263.875 C-223.99898894 260.19510349 -220.71520164 256.49484085 -217.5625 252.5625 C-214.30450448 248.52027901 -210.91104949 244.67101773 -207.375 240.875 C-203.57331151 236.79151167 -200.04133939 232.59836401 -196.67578125 228.1484375 C-193.64551967 224.26348676 -190.30094343 220.65461594 -187 217 C-181.18103535 210.49194743 -175.40481182 203.85929454 -170.390625 196.703125 C-169.93171875 196.14109375 -169.4728125 195.5790625 -169 195 C-168.34 195 -167.68 195 -167 195 C-166.34 193.35 -165.68 191.7 -165 190 C-164.34 190 -163.68 190 -163 190 C-162.78730469 189.47792969 -162.57460938 188.95585937 -162.35546875 188.41796875 C-160.4378437 184.99719092 -157.8992252 182.24517501 -155.3125 179.3125 C-151.11099008 174.49944955 -147.07774123 169.63870069 -143.3046875 164.4765625 C-142.87414062 163.98929688 -142.44359375 163.50203125 -142 163 C-141.34 163 -140.68 163 -140 163 C-139.72615479 162.40775635 -139.45230957 161.8155127 -139.17016602 161.20532227 C-138.04182286 159.07882035 -136.86920306 157.50894637 -135.27734375 155.71484375 C-134.74343018 155.10737305 -134.2095166 154.49990234 -133.65942383 153.87402344 C-133.09118896 153.2349707 -132.5229541 152.59591797 -131.9375 151.9375 C-127.98014886 147.43627848 -124.07224274 142.91935792 -120.3125 138.25 C-117.30195508 134.52817249 -114.17914578 130.95995704 -110.9375 127.4375 C-105.57245329 121.60374406 -100.40154793 115.60232189 -96 109 C-95.34 109 -94.68 109 -94 109 C-93.75121094 108.43023437 -93.50242187 107.86046875 -93.24609375 107.2734375 C-91.8103822 104.65405155 -90.11292544 102.79778356 -88.0625 100.625 C-84.38182834 96.62094664 -80.99441226 92.49652488 -77.6875 88.1875 C-73.54631488 82.81204219 -69.14337674 77.82123699 -64.48120117 72.89526367 C-60.41188116 68.55268504 -56.77061516 63.96618948 -53.15551758 59.24365234 C-49.40832752 54.39911432 -45.3390237 49.93714606 -41.13989258 45.48364258 C-37.95613628 42.09032522 -35.07452245 38.63180825 -32.375 34.84765625 C-30.23084957 31.96645411 -27.82253115 29.32872105 -25.41796875 26.6640625 C-23.92124226 25.04224655 -23.92124226 25.04224655 -23 23 C-22.34 23 -21.68 23 -21 23 C-20.58681519 22.11139282 -20.58681519 22.11139282 -20.1652832 21.20483398 C-19.05642724 19.10676606 -17.90000022 17.51312362 -16.35546875 15.72265625 C-15.58686523 14.82836914 -15.58686523 14.82836914 -14.80273438 13.91601562 C-14.00319336 12.99852539 -14.00319336 12.99852539 -13.1875 12.0625 C-12.66607422 11.45470703 -12.14464844 10.84691406 -11.60742188 10.22070312 C-2.77594053 0 -2.77594053 0 0 0 Z " fill="#010101" transform="translate(636,193)"/>
<path d="M0 0 C0.33 0 0.66 0 1 0 C1 13.43709625 -1.925623 26.72398721 -4 40 C62.99 40 129.98 40 199 40 C199 41.32 199 42.64 199 44 C198.01 44 197.02 44 196 44 C196 43.34 196 42.68 196 42 C194.4475324 42.00138269 194.4475324 42.00138269 192.86370182 42.00279331 C167.71926172 42.02495991 142.57482289 42.04141006 117.4303751 42.05181217 C105.27088131 42.05697582 93.11139396 42.06401983 80.9519043 42.07543945 C70.35784032 42.08538419 59.763781 42.09185292 49.16971248 42.09408849 C43.55650597 42.09539596 37.9433128 42.09848406 32.33011055 42.10573006 C27.05333464 42.11248696 21.77657765 42.11461764 16.49979782 42.11310768 C14.55708527 42.11338416 12.61437212 42.11539123 10.67166328 42.11920547 C8.03141574 42.12413758 5.39124084 42.12300009 2.75099182 42.12025452 C1.97182406 42.12316736 1.19265629 42.1260802 0.38987738 42.12908131 C-4.88587879 42.11412121 -4.88587879 42.11412121 -6 41 C-5.96074384 38.54498034 -5.85453291 36.13471345 -5.6875 33.6875 C-5.64117432 32.97142578 -5.59484863 32.25535156 -5.54711914 31.51757812 C-5.10140637 25.27064595 -4.19926128 19.1476695 -3 13 C-2.34 13 -1.68 13 -1 13 C-1.01160156 12.31292969 -1.02320313 11.62585938 -1.03515625 10.91796875 C-1.04417969 10.01691406 -1.05320312 9.11585938 -1.0625 8.1875 C-1.07410156 7.29417969 -1.08570313 6.40085937 -1.09765625 5.48046875 C-1 3 -1 3 0 0 Z " fill="#AEAEAE" transform="translate(595,445)"/>
<path d="M0 0 C0.33 0 0.66 0 1 0 C1.11155967 5.12058873 0.8368701 9.59533518 -0.25 14.625 C-2.21000946 24.21341438 -3.38734776 33.91606013 -4.64160156 43.61572266 C-4.80370117 44.8691748 -4.96580078 46.12262695 -5.1328125 47.4140625 C-5.27605957 48.5376416 -5.41930664 49.6612207 -5.56689453 50.81884766 C-5.86154106 52.98302145 -6.21389854 55.13994543 -6.61669922 57.28662109 C-7.25637943 59.96051175 -7.25637943 59.96051175 -6 62 C-6.33 62.66 -6.66 63.32 -7 64 C-7.99 64 -8.98 64 -10 64 C-9.85973717 61.68715544 -9.71264442 59.37472409 -9.5625 57.0625 C-9.48128906 55.77472656 -9.40007812 54.48695313 -9.31640625 53.16015625 C-9 50 -9 50 -8 49 C-7.81296346 47.33745302 -7.67609655 45.66917374 -7.5625 44 C-7.27617359 40.45955125 -6.874903 37.12878514 -6 33.6875 C-5.07062122 29.89590396 -4.8087479 26.27308045 -4.625 22.375 C-4.17157914 14.53851865 -2.25475652 7.4878891 0 0 Z " fill="#898989" transform="translate(453,826)"/>
<path d="M0 0 C0.33 0 0.66 0 1 0 C1.12283898 6.08560061 0.76245528 11.72967761 -0.27734375 17.71875 C-0.40814835 18.50270142 -0.53895294 19.28665283 -0.67372131 20.09436035 C-0.94851016 21.73178995 -1.22681828 23.36863262 -1.50854492 25.00488281 C-1.94095148 27.52007636 -2.36092435 30.03712534 -2.77929688 32.5546875 C-3.04875868 34.15116344 -3.31891534 35.74752229 -3.58984375 37.34375 C-3.71592514 38.09781128 -3.84200653 38.85187256 -3.97190857 39.62878418 C-4.88410588 44.88410588 -4.88410588 44.88410588 -6 46 C-6.29430772 47.33630117 -6.53661833 48.68419222 -6.75390625 50.03515625 C-6.88603516 50.84404297 -7.01816406 51.65292969 -7.15429688 52.48632812 C-7.28900391 53.33646484 -7.42371094 54.18660156 -7.5625 55.0625 C-7.70107422 55.91650391 -7.83964844 56.77050781 -7.98242188 57.65039062 C-8.32523005 59.76634451 -8.66307616 61.88310118 -9 64 C-9.33 64 -9.66 64 -10 64 C-10.02694851 62.04174127 -10.04637218 60.08337774 -10.0625 58.125 C-10.07410156 57.03445313 -10.08570313 55.94390625 -10.09765625 54.8203125 C-10 52 -10 52 -9 50 C-8.44201245 46.89183496 -7.97514082 43.77416744 -7.5 40.65234375 C-7 38 -7 38 -6 37 C-5.48355305 34.27123931 -5.01985867 31.55130204 -4.58984375 28.80859375 C-4.45808243 27.98875504 -4.32632111 27.16891632 -4.19056702 26.32423401 C-3.76905735 23.69591724 -3.3532229 21.06673766 -2.9375 18.4375 C-2.65336708 16.65944568 -2.36886671 14.88145003 -2.08398438 13.10351562 C-1.38505135 8.73634749 -0.69120807 4.36839717 0 0 Z " fill="#C7C7C7" transform="translate(629,237)"/>
<path d="M0 0 C0.33 0 0.66 0 1 0 C1.26417183 7.17666809 0.25206012 13.98440261 -0.875 21.0625 C-1.04902344 22.20783203 -1.22304688 23.35316406 -1.40234375 24.53320312 C-2.28041893 30.1561364 -3.25363182 35.57996543 -5 41 C-5.33 41 -5.66 41 -6 41 C-5.54362211 31.53616378 -4.81847768 22.32190498 -3 13 C-2.34 13 -1.68 13 -1 13 C-1.01160156 12.31292969 -1.02320313 11.62585938 -1.03515625 10.91796875 C-1.04417969 10.01691406 -1.05320312 9.11585938 -1.0625 8.1875 C-1.07410156 7.29417969 -1.08570313 6.40085937 -1.09765625 5.48046875 C-1 3 -1 3 0 0 Z " fill="#8D8D8D" transform="translate(595,445)"/>
<path d="M0 0 C0.33 0 0.66 0 1 0 C1.43230491 7.34918342 -0.18225815 13.90215087 -2 21 C-2.33 21 -2.66 21 -3 21 C-2.88588196 18.24915453 -2.75914051 15.49988053 -2.625 12.75 C-2.5940625 11.97269531 -2.563125 11.19539063 -2.53125 10.39453125 C-2.16618114 3.27568856 -2.16618114 3.27568856 0 0 Z " fill="#6F6F6F" transform="translate(618,302)"/>
<path d="M0 0 C0.33 0 0.66 0 1 0 C1.16589226 6.02741895 0.57114133 11.57494793 -0.5 17.5 C-0.64308594 18.32242187 -0.78617188 19.14484375 -0.93359375 19.9921875 C-1.28306912 21.99584627 -1.64068156 23.99808298 -2 26 C-2.33 26 -2.66 26 -3 26 C-3.02694851 24.04174127 -3.04637218 22.08337774 -3.0625 20.125 C-3.07410156 19.03445313 -3.08570313 17.94390625 -3.09765625 16.8203125 C-3 14 -3 14 -2 12 C-1.61369961 9.96416877 -1.26403216 7.9212682 -0.9375 5.875 C-0.76089844 4.77929688 -0.58429687 3.68359375 -0.40234375 2.5546875 C-0.26957031 1.71164062 -0.13679687 0.86859375 0 0 Z " fill="#777777" transform="translate(622,275)"/>
<path d="M0 0 C0.33 0 0.66 0 1 0 C1.16032995 5.87876496 0.6092534 11.23388095 -0.5 17 C-0.64308594 17.77472656 -0.78617188 18.54945313 -0.93359375 19.34765625 C-1.28272329 21.23295579 -1.64045316 23.11665939 -2 25 C-2.33 25 -2.66 25 -3 25 C-2.88519969 22.14509764 -2.75847036 19.2915412 -2.625 16.4375 C-2.5940625 15.63763672 -2.563125 14.83777344 -2.53125 14.01367188 C-2.28743436 9.03576917 -1.56368612 4.73555351 0 0 Z " fill="#5D5D5D" transform="translate(603,392)"/>
<path d="M0 0 C0.33 0 0.66 0 1 0 C1.28100502 7.16562789 0.20443195 13.94546999 -1 21 C-1.66 21 -2.32 21 -3 21 C-3 18.36 -3 15.72 -3 13 C-2.34 13 -1.68 13 -1 13 C-1.01160156 12.31292969 -1.02320313 11.62585938 -1.03515625 10.91796875 C-1.04417969 10.01691406 -1.05320312 9.11585938 -1.0625 8.1875 C-1.07410156 7.29417969 -1.08570313 6.40085937 -1.09765625 5.48046875 C-1 3 -1 3 0 0 Z " fill="#939393" transform="translate(595,445)"/>
<path d="M0 0 C1.32 0 2.64 0 4 0 C3.34034961 6.86036401 1.7637236 13.34443923 0 20 C-1.51553092 16.02549507 -0.49888623 12.79518851 0.4375 8.75 C0.72496094 7.48671875 1.01242187 6.2234375 1.30859375 4.921875 C1.53675781 3.95765625 1.76492188 2.9934375 2 2 C1.34 2 0.68 2 0 2 C0 1.34 0 0.68 0 0 Z " fill="#A7A7A7" transform="translate(634,191)"/>
<path d="M0 0 C-0.33 2.64 -0.66 5.28 -1 8 C-1.66 7.01 -2.32 6.02 -3 5 C-5.64 6.98 -8.28 8.96 -11 11 C-9.28771067 7.57542133 -8.12304686 5.85081765 -5.5 3.25 C-4.8915625 2.63640625 -4.283125 2.0228125 -3.65625 1.390625 C-2 0 -2 0 0 0 Z " fill="#484848" transform="translate(636,193)"/>
<path d="M0 0 C1.17732706 3.67914707 1 7.16659144 1 11 C1.33 11.66 1.66 12.32 2 13 C1.67 13.66 1.34 14.32 1 15 C0.01 15 -0.98 15 -2 15 C-1.85973717 12.68715544 -1.71264442 10.37472409 -1.5625 8.0625 C-1.48128906 6.77472656 -1.40007812 5.48695313 -1.31640625 4.16015625 C-1 1 -1 1 0 0 Z " fill="#A7A7A7" transform="translate(445,875)"/>
</svg>
