<svg width="1080" height="1080" version="1.1" xmlns="http://www.w3.org/2000/svg" desc="Created with imagetracer.js version 1.2.6" ><path fill="rgb(0,0,0)" stroke="rgb(0,0,0)" stroke-width="1" opacity="0" d="M 0 0 L 684.5 0 L 685 1.5 L 679 10 L 676 11.5 Q 676.8 13.8 674.5 13 L 673 16 Q 670.3 14.9 671 17.5 L 658 34 Q 655.3 32.9 656 35.5 L 653 37 Q 649.5 45.7 642.5 52 Q 640.3 51.3 641 53.5 L 638 55 L 629 69 L 626 70.5 Q 626.8 72.8 624.5 72 L 623 75 L 620 76.5 L 605 94.5 L 596 108 L 593 109.5 Q 593.8 111.8 591.5 111 L 590 114 L 587 115.5 L 585 118.5 L 572 135 L 569 136.5 L 559.5 150 L 557 151.5 L 555 154.5 L 552 156 L 545 167 Q 542.3 165.9 543 168.5 L 540 173 L 537 174.5 L 531 181.5 L 530 185 Q 527.3 183.9 528 186.5 L 525 191 L 522 192.5 Q 522.8 194.8 520.5 194 L 519 197 Q 516.3 195.9 517 198.5 L 512 206 Q 509.3 204.9 510 207.5 L 507 212 L 504 213.5 L 502 216.5 L 489 233 L 486 234.5 L 484 237.5 L 467.5 257 Q 465.3 256.3 466 258.5 L 459 268 Q 456.3 266.9 457 269.5 L 454 274 L 451 275.5 L 443.5 286 Q 441.3 285.3 442 287.5 L 439 289 Q 440.5 292.8 437.5 292 L 436 295 L 433 296.5 L 426 307 Q 423.3 305.9 424 308.5 L 421 313 L 418 314.5 L 416 317.5 L 414 321 Q 411 319.8 412 323.5 L 409 325 L 407.5 328 L 406 328 Q 407.5 331.7 404.5 331 L 403 334 L 400 335.5 L 398 338.5 L 391 348 Q 388.3 346.9 389 349.5 Q 380.4 356.4 376 366 Q 373.3 364.9 374 367.5 L 371 369 L 369.5 372 Q 367.3 371.3 368 373.5 L 357.5 387 Q 355.3 386.3 356 388.5 L 353 390 L 350 396 L 347 397.5 L 339.5 408 Q 337.3 407.3 338 409.5 L 335 411 L 332 417 Q 329.3 415.9 330 418.5 L 324.5 426 Q 322.3 425.3 323 427.5 Q 313.4 435.2 308 446 L 305 447.5 Q 305.8 449.8 303.5 449 L 296 457.5 L 293 464 Q 290.3 462.9 291 465.5 L 288 467 L 286.5 470 Q 284.3 469.3 285 471.5 L 268.5 491 Q 266.3 490.3 267 492.5 L 256.5 506 Q 254.3 505.3 255 507.5 L 252 509 L 237 529 L 234 530.5 L 228 537.5 L 225 544 L 222 545.5 L 220 548.5 L 217 550 L 210 558.5 L 207 565 Q 204.3 563.9 205 566.5 L 202 568 L 200.5 571 Q 198.3 570.3 199 572.5 L 186 589 Q 183.3 587.9 184 590.5 L 178 596.5 L 172 606 L 169 607.5 Q 169.8 609.8 167.5 609 L 151 630 L 148 631.5 L 148 633 L 146 633.5 L 146 640 L 459 640.5 L 456 646.5 L 456 655.5 L 453 664.5 L 453 674.5 L 450 684.5 L 450 693.5 L 447 703.5 L 447 712.5 L 444 722.5 L 444 731.5 L 442 736.5 L 441 750.5 L 438 760.5 L 438 769.5 L 436 774.5 L 435 787.5 L 432 799.5 L 432 807.5 L 430 812.5 L 429 826.5 L 427 831.5 L 427 839.5 L 424 850.5 L 423 864.5 L 421 869.5 L 421 879.5 L 418 888.5 L 418 897.5 L 415 907.5 L 415 916.5 L 412 925.5 L 412 935.5 L 409 945.5 L 408 959.5 L 406 964.5 L 406 974.5 L 403 982.5 L 403 992.5 L 400 1002.5 L 400 1010.5 L 397 1020.5 L 397 1030.5 L 394 1039.5 L 393 1054.5 L 391 1058.5 L 391 1068.5 L 390 1073.5 L 388 1075.5 L 388 1080 L 0 1080 L 0 0 Z " /><path fill="rgb(0,0,0)" stroke="rgb(0,0,0)" stroke-width="1" opacity="0" d="M 694 0 L 1080 0 L 1080 1080 L 397.5 1080 L 397 1076 L 400 1074.5 L 402 1071.5 L 406 1068.5 L 408 1065.5 L 418.5 1052 Q 420.8 1052.8 420 1050.5 L 423 1049 L 424.5 1046 Q 426.8 1046.8 426 1044.5 L 429 1043 L 442.5 1025 Q 444.8 1025.8 444 1023.5 L 447 1022 L 459 1005 L 462 1003.5 Q 461.3 1001.3 463.5 1002 L 468 995 L 471 993.5 L 471 991.5 L 477 984 L 480 982.5 Q 479.3 980.3 481.5 981 L 483 978 Q 485.7 979.1 485 976.5 L 488 975 L 498 960 L 501 958.5 L 503 955.5 L 506 954 L 514.5 942 Q 516.8 942.8 516 940.5 L 519 936 L 522 934.5 L 524 931.5 L 536 916 L 539 914.5 Q 538.3 912.3 540.5 913 L 543.5 909 Q 545.8 909.8 545 907.5 L 552 898 Q 554.7 899.1 554 896.5 L 557 892 L 560 890.5 Q 559.3 888.3 561.5 889 L 563 886 Q 565.7 887.1 565 884.5 L 573.5 874 Q 575.8 874.8 575 872.5 L 578 868 L 581 866.5 L 583 863.5 L 585 860 Q 587.7 861.1 587 858.5 L 590 853 L 593 851.5 Q 592.3 849.3 594.5 850 L 596 847 L 599 845.5 Q 598.3 843.3 600.5 844 L 602 841 Q 604.7 842.1 604 839.5 L 616 824 L 619 822.5 L 620.5 820 Q 622.8 820.8 622 818.5 L 629 809 Q 631.7 810.1 631 807.5 L 634 806 L 635.5 803 Q 637.8 803.8 637 801.5 L 640 797 L 643 795.5 L 652 782 L 655 782 Q 653.5 778.2 656.5 779 L 658 776 L 661 774.5 L 663 771.5 L 671.5 761 Q 673.8 761.8 673 759.5 L 676 755 L 679 753.5 L 681 750.5 L 700.5 728 Q 702.8 728.8 702 726.5 L 709 717 Q 711.7 718.1 711 715.5 L 714 714 L 717 708 L 720 706.5 L 727 696 Q 729.7 697.1 729 694.5 L 732 693 L 733.5 690 Q 735.8 690.8 735 688.5 L 738 684 L 741 682.5 L 745 675 Q 747.7 676.1 747 673.5 L 750 669 L 753 669 Q 751.5 665.2 754.5 666 L 756 663 L 759 661.5 L 761 658.5 L 763 655 Q 765.7 656.1 765 653.5 L 768 649 L 771 647.5 L 777 639 Q 779.7 640.1 779 637.5 L 786.5 628 Q 788.8 628.8 788 626.5 L 791 625 L 792.5 622 Q 794.8 622.8 794 620.5 Q 802.6 613.6 807 604 Q 809.7 605.1 809 602.5 L 812 601 L 819 590 Q 821.7 591.1 821 588.5 L 825.5 583 Q 827.8 583.8 827 581.5 L 830 580 L 836 571 Q 838.7 572.1 838 569.5 L 854 550 Q 856.7 551.1 856 548.5 L 863 539 L 866 537.5 L 868 534.5 L 871 533 L 872.5 530 Q 874.8 530.8 874 528.5 L 887.5 512 Q 889.8 512.8 889 510.5 L 892 509 L 902.5 494 Q 904.8 494.8 904 492.5 L 907 491 L 908.5 488 Q 910.8 488.8 910 486.5 L 925 468 Q 927.7 469.1 927 466.5 L 931 463.5 L 931 462 L 933 461.5 L 933 455 L 619.5 455 L 619 453.5 L 623 438.5 L 623 429.5 L 626 420.5 L 626 411.5 L 628 406.5 L 629 393.5 L 632 383.5 L 632 374.5 L 635 364.5 L 635 354.5 L 638 346.5 L 638 336.5 L 641 326.5 L 641 318.5 L 643 313.5 L 644 299.5 L 647 287.5 L 647 280.5 L 649 275.5 L 650 262.5 L 652 257.5 L 652 249.5 L 655 238.5 L 656 225.5 L 658 220.5 L 658 211.5 L 661 201.5 L 661 192.5 L 664 183.5 L 664 174.5 L 667 163.5 L 668 150.5 L 670 146.5 L 670 137.5 L 673 127.5 L 673 118.5 L 676 109.5 L 676 99.5 L 679 90.5 L 679 81.5 L 682 71.5 L 683 57.5 L 685 53.5 L 685 44.5 L 688 35.5 L 688 25.5 L 691 15.5 L 691 7.5 Q 694.9 5.4 694 0 Z " /><path fill="rgb(254,254,254)" stroke="rgb(254,254,254)" stroke-width="1" opacity="0.47843137254901963" d="M 685 0 L 694 0 L 694 3.5 L 691 7.5 L 691 15.5 L 688 25.5 L 688 35.5 L 685 44.5 L 685 53.5 L 683 57.5 L 682 71.5 L 679 81.5 L 679 90.5 L 676 99.5 L 676 109.5 L 673 118.5 L 673 127.5 L 670 137.5 L 670 146.5 L 668 150.5 L 667 163.5 L 664 174.5 L 664 183.5 L 661 192.5 L 661 201.5 L 658 211.5 L 658 220.5 L 656 225.5 L 655 238.5 L 652 249.5 L 652 257.5 L 650 262.5 L 649 275.5 L 647 280.5 L 646 294.5 L 644 299.5 L 644 307.5 L 641 318.5 L 641 326.5 L 638 336.5 L 638 346.5 L 635 354.5 L 635 364.5 L 632 374.5 L 632 383.5 L 630 388.5 L 629 401.5 L 626 411.5 L 626 420.5 L 623 429.5 L 623 438.5 L 619 455 L 932.5 455 L 933 455.5 L 933 462 Q 930.3 460.9 931 463.5 L 927 466.5 L 925 469.5 L 910 488 L 907 489.5 Q 907.8 491.8 905.5 491 L 904 494 L 901 495.5 L 892 509 L 889 510.5 Q 889.8 512.8 887.5 512 L 874 530 L 871 531.5 Q 871.8 533.8 869.5 533 L 868 536 Q 865.3 534.9 866 537.5 L 863 539 L 856 550 Q 853.3 548.9 854 551.5 Q 843.9 560 838 571 Q 835.3 569.9 836 572.5 L 830 580 L 827 581.5 Q 827.8 583.8 825.5 583 L 821 590 Q 818.3 588.9 819 591.5 L 812 601 L 809 602.5 L 807 605.5 L 794 622 L 791 623.5 Q 791.8 625.8 789.5 625 L 788 628 L 785 629.5 Q 780 633 779 639 Q 776.3 637.9 777 640.5 L 769.5 649 Q 767.3 648.3 768 650.5 L 765 655 Q 762.3 653.9 763 656.5 L 761 660 Q 758.3 658.9 759 661.5 L 756 663 L 754.5 666 L 753 666 L 753 669 Q 749.3 667.5 750 670.5 L 747 675 Q 744.3 673.9 745 676.5 L 739.5 684 Q 737.3 683.3 738 685.5 L 735 690 L 732 691.5 Q 732.8 693.8 730.5 693 L 729 696 Q 726.3 694.9 727 697.5 L 718.5 708 Q 716.3 707.3 717 709.5 L 714 714 L 711 715.5 L 709 718.5 L 702 728 L 699 729.5 L 683 747.5 L 681 752 Q 678.3 750.9 679 753.5 L 676 755 L 673 761 L 670 762.5 L 663 773 Q 660.3 771.9 661 774.5 L 658 776 L 656.5 779 L 655 779 L 655 782 Q 651.3 780.5 652 783.5 L 641.5 797 Q 639.3 796.3 640 798.5 L 637 803 L 634 804.5 Q 634.8 806.8 632.5 806 L 631 809 Q 628.3 807.9 629 810.5 L 622 820 L 619 821.5 L 617.5 824 Q 615.3 823.3 616 825.5 L 604 841 Q 601.3 839.9 602 842.5 L 599 844 L 597.5 847 Q 595.3 846.3 596 848.5 L 593 850 L 591.5 853 Q 589.3 852.3 590 854.5 L 587 860 Q 584.3 858.9 585 861.5 L 583 865 Q 580.3 863.9 581 866.5 L 578 868 L 575 874 L 572 875.5 L 565 886 Q 562.3 884.9 563 887.5 L 560 889 L 558.5 892 Q 556.3 891.3 557 893.5 L 554 898 Q 551.3 896.9 552 899.5 L 545 909 L 542 910.5 L 540.5 913 Q 538.3 912.3 539 914.5 L 536 916 L 524 933 Q 521.3 931.9 522 934.5 L 519 936 L 516 942 L 513 943.5 L 506 954 L 503 955.5 L 501 958.5 L 498 960 L 488 975 L 485 976.5 L 483 979.5 L 480 981 L 478.5 984 Q 476.3 983.3 477 985.5 L 469.5 995 Q 467.3 994.3 468 996.5 L 463.5 1002 Q 461.3 1001.3 462 1003.5 L 459 1005 L 447 1022 L 444 1023.5 Q 444.8 1025.8 442.5 1025 L 429 1043 L 426 1044.5 Q 426.8 1046.8 424.5 1046 L 423 1049 L 420 1050.5 Q 420.8 1052.8 418.5 1052 L 408 1067 Q 405.3 1065.9 406 1068.5 L 402 1071.5 L 400 1074.5 L 397 1076 L 397 1080 L 388 1080 L 388 1075.5 L 390 1073.5 L 391 1068.5 L 391 1058.5 L 393 1054.5 L 394 1039.5 L 397 1030.5 L 397 1020.5 L 399 1016.5 L 400 1002.5 L 403 992.5 L 403 982.5 L 406 974.5 L 406 964.5 L 409 954.5 L 409 945.5 L 412 935.5 L 412 925.5 L 415 916.5 L 415 907.5 L 418 897.5 L 418 888.5 L 421 879.5 L 421 869.5 L 423 864.5 L 424 850.5 L 426 845.5 L 427 831.5 L 429 826.5 L 429 818.5 L 432 807.5 L 432 799.5 L 435 787.5 L 436 774.5 L 438 769.5 L 438 760.5 L 441 750.5 L 441 741.5 L 444 731.5 L 444 722.5 L 447 712.5 L 447 703.5 L 450 693.5 L 450 684.5 L 453 674.5 L 453 664.5 L 456 655.5 L 456 646.5 L 459 640.5 L 146 640 L 146 633.5 L 148 633 L 148 631.5 L 151 630 L 167.5 609 Q 169.8 609.8 169 607.5 L 172 606 L 184 589 Q 186.7 590.1 186 587.5 Q 194.2 580.5 199 571 L 202 569.5 Q 201.3 567.3 203.5 568 L 205 565 Q 207.7 566.1 207 563.5 L 217 550 L 220 548.5 L 222 545.5 L 225 544 L 228 537.5 L 235.5 529 Q 237.8 529.8 237 527.5 L 252 509 L 255 507.5 Q 254.3 505.3 256.5 506 L 267 491 L 270 489.5 L 285 470 L 288 468.5 Q 287.3 466.3 289.5 467 L 291 464 Q 293.7 465.1 293 462.5 L 303.5 449 Q 305.8 449.8 305 447.5 L 308 446 L 310 441.5 L 323 426 L 326 424.5 L 330 417 Q 332.7 418.1 332 415.5 L 335 411 L 338 409.5 Q 337.3 407.3 339.5 408 L 348.5 396 Q 350.8 396.8 350 394.5 L 353 390 L 356 388.5 Q 355.3 386.3 357.5 387 L 368 372 L 371 370.5 Q 370.3 368.3 372.5 369 L 374 366 Q 376.7 367.1 376 364.5 L 389 348 Q 391.7 349.1 391 346.5 Q 396.3 343 398 337 Q 400.7 338.1 400 335.5 L 403 334 L 404.5 331 L 406 331 Q 404.5 327.3 407.5 328 L 409 325 L 412 323.5 L 412 321 Q 414.7 322.1 414 319.5 L 416 316 Q 418.7 317.1 418 314.5 L 421 313 L 424 307 Q 426.7 308.1 426 305.5 L 434.5 295 Q 436.8 295.8 436 293.5 L 439 292 Q 437.5 288.3 440.5 289 L 442 286 L 445 284.5 L 452.5 274 Q 454.8 274.8 454 272.5 L 457 268 Q 459.7 269.1 459 266.5 L 466 257 L 469 255.5 L 482 240.5 L 484 236 Q 486.7 237.1 486 234.5 L 489 233 L 502 215 Q 504.7 216.1 504 213.5 L 507 212 L 510 206 Q 512.7 207.1 512 204.5 Q 516.5 202 517 197 Q 519.7 198.1 519 195.5 L 522 194 L 523.5 191 Q 525.8 191.8 525 189.5 L 528 185 Q 530.7 186.1 530 183.5 L 538.5 173 Q 540.8 173.8 540 171.5 L 543 167 Q 545.7 168.1 545 165.5 L 552 156 L 555 154.5 L 557 151.5 L 561 148.5 L 570.5 135 Q 572.8 135.8 572 133.5 L 585 117 Q 587.7 118.1 587 115.5 L 590 114 L 591.5 111 Q 593.8 111.8 593 109.5 L 596 108 L 605 94.5 L 621.5 75 Q 623.8 75.8 623 73.5 L 626 72 L 627.5 69 Q 629.8 69.8 629 67.5 L 638 55 L 641 53.5 Q 640.3 51.3 642.5 52 Q 649.5 45.7 653 37 L 656 35.5 L 658 32.5 L 671 16 Q 673.7 17.1 673 14.5 L 676 13 L 677.5 10 Q 679.8 10.8 679 8.5 L 685 0 Z M 687 5 L 639 61 Q 640 63 637 62 L 637 64 L 535 183 Q 536 185 533 184 L 517 204 Q 518 206 515 205 L 506 218 L 449 284 Q 450 286 447 285 L 432 305 L 381 364 Q 382 366 379 365 L 369 379 L 295 465 Q 296 467 293 466 L 268 498 L 152 633 Q 153 635 150 634 L 150 637 L 461 637 L 462 639 L 461 651 L 458 662 L 458 670 L 455 682 L 455 689 L 449 720 L 449 727 L 446 739 L 446 746 L 444 751 L 443 765 L 440 777 L 440 784 L 437 796 L 437 803 L 435 809 L 434 822 L 429 847 L 428 860 L 426 866 L 423 891 L 420 904 L 419 917 L 414 942 L 414 949 L 411 961 L 411 968 L 408 980 L 408 987 L 405 999 L 405 1006 L 402 1018 L 402 1025 L 399 1037 L 399 1044 L 396 1056 L 396 1063 L 393 1074 Q 392 1077 395 1076 L 446 1017 Q 445 1014 448 1015 L 448 1014 L 505 949 Q 504 946 507 947 L 565 880 Q 564 877 567 878 L 567 877 L 624 812 Q 623 809 626 810 L 642 791 Q 641 788 644 789 L 644 788 L 722 699 Q 721 696 724 697 L 734 684 L 781 631 Q 780 628 783 629 L 783 628 L 820 586 Q 819 583 822 584 L 852 548 L 900 494 Q 899 491 902 492 Q 912 477 926 464 L 929 458 L 617 458 L 615 457 L 618 442 L 618 435 L 621 424 L 621 417 L 624 405 L 624 398 L 627 386 L 627 380 L 629 374 L 630 361 L 633 349 L 633 342 L 638 318 L 639 305 L 644 281 L 644 275 L 650 243 L 650 237 L 653 225 L 653 218 L 656 206 L 659 181 L 662 169 L 662 162 L 665 150 L 665 143 L 668 132 L 668 125 L 671 113 L 671 106 L 674 94 L 674 87 L 677 76 L 677 69 L 680 57 L 680 50 L 683 38 L 683 31 L 686 20 L 686 13 L 688 8 Q 689 4 687 5 Z " /><path fill="rgb(255,255,255)" stroke="rgb(255,255,255)" stroke-width="1" opacity="1" d="M 686.5 5 Q 689.1 4.2 688 7.5 L 686 12.5 L 686 19.5 L 683 30.5 L 683 37.5 L 680 49.5 L 680 56.5 L 677 68.5 L 677 75.5 L 674 86.5 L 674 93.5 L 671 105.5 L 671 112.5 L 668 124.5 L 668 131.5 L 665 142.5 L 665 149.5 L 662 161.5 L 662 168.5 L 659 180.5 L 656 205.5 L 653 217.5 L 653 224.5 L 650 236.5 L 650 242.5 L 644 274.5 L 644 280.5 L 639 304.5 L 638 317.5 L 633 341.5 L 633 348.5 L 630 360.5 L 629 373.5 L 627 379.5 L 627 385.5 L 624 397.5 L 624 404.5 L 621 416.5 L 621 423.5 L 618 434.5 L 618 441.5 L 615 456.5 L 616.5 458 L 929 458 L 926 463.5 Q 912.2 476.6 902 492 Q 899.3 490.9 900 493.5 L 852 547.5 L 822 584 Q 819.3 582.9 820 585.5 L 783 627.5 L 783 629 Q 780.3 627.9 781 630.5 L 734 683.5 L 724 697 Q 721.3 695.9 722 698.5 L 644 787.5 L 644 789 Q 641.3 787.9 642 790.5 L 626 810 Q 623.3 808.9 624 811.5 L 567 876.5 L 567 878 Q 564.3 876.9 565 879.5 L 506.5 947 Q 504.3 946.3 505 948.5 L 448 1013.5 L 448 1015 Q 445.3 1013.9 446 1016.5 L 394.5 1076 Q 391.9 1076.8 393 1073.5 L 396 1062.5 L 396 1055.5 L 399 1043.5 L 399 1036.5 L 402 1024.5 L 402 1017.5 L 405 1005.5 L 405 998.5 L 408 986.5 L 408 979.5 L 411 967.5 L 411 960.5 L 414 948.5 L 414 941.5 L 419 916.5 L 420 903.5 L 423 890.5 L 426 865.5 L 428 859.5 L 429 846.5 L 434 821.5 L 435 808.5 L 437 802.5 L 437 795.5 L 440 783.5 L 440 776.5 L 443 764.5 L 444 750.5 L 446 745.5 L 446 738.5 L 449 726.5 L 449 719.5 L 455 688.5 L 455 681.5 L 458 669.5 L 458 661.5 L 461 650.5 L 462 638.5 L 460.5 637 L 150 637 L 150 634 Q 152.7 635.1 152 632.5 L 268 497.5 L 293 466 Q 295.7 467.1 295 464.5 L 369 378.5 L 379 365 Q 381.7 366.1 381 363.5 L 432 304.5 L 447 285 Q 449.7 286.1 449 283.5 L 506 217.5 L 515 205 Q 517.7 206.1 517 203.5 L 533 184 Q 535.7 185.1 535 182.5 L 637 63.5 L 637 62 Q 639.7 63.1 639 60.5 L 686.5 5 Z " /></svg>